<?xml version="1.0" encoding="UTF-8" standalone="no"?>
<!-- Created with Inkscape (http://www.inkscape.org/) -->

<svg
   version="1.1"
   id="svg25"
   xml:space="preserve"
   width="840.57465"
   height="314.01599"
   viewBox="0 0 840.57464 314.016"
   sodipodi:docname="amu.svg"
   inkscape:version="1.1.1 (3bf5ae0d25, 2021-09-20)"
   xmlns:inkscape="http://www.inkscape.org/namespaces/inkscape"
   xmlns:sodipodi="http://sodipodi.sourceforge.net/DTD/sodipodi-0.dtd"
   xmlns="http://www.w3.org/2000/svg"
   xmlns:svg="http://www.w3.org/2000/svg"><defs
     id="defs29" /><sodipodi:namedview
     id="namedview27"
     pagecolor="#ffffff"
     bordercolor="#999999"
     borderopacity="1"
     inkscape:pageshadow="0"
     inkscape:pageopacity="0"
     inkscape:pagecheckerboard="0"
     showgrid="false"
     fit-margin-top="20"
     fit-margin-left="20"
     fit-margin-right="20"
     lock-margins="true"
     fit-margin-bottom="20"
     inkscape:zoom="0.55241662"
     inkscape:cx="396.43992"
     inkscape:cy="133.05175"
     inkscape:window-width="1920"
     inkscape:window-height="989"
     inkscape:window-x="0"
     inkscape:window-y="0"
     inkscape:window-maximized="1"
     inkscape:current-layer="g31" /><g
     id="g31"
     inkscape:groupmode="layer"
     inkscape:label="ink_ext_XXXXXX"
     transform="matrix(1.3333333,0,0,-1.3333333,20,294.01599)"><g
       id="g33"
       transform="scale(0.1)"><path
         d="M 2117.25,977.07 V 643.66 c 0,-30.461 16.09,-41.48 44.87,-41.48 33.81,0 106.61,20.308 158.25,47.39 v 327.5 h 49.07 V 564.949 h -43.13 l -3.41,37.231 c -44,-21.11 -117.66,-45.668 -167.55,-45.668 -64.33,0 -87.18,36.386 -87.18,93.058 v 327.5 h 49.08"
         style="fill:#4dc6f4;fill-opacity:1;fill-rule:nonzero;stroke:none"
         id="path35" /><path
         d="m 2776.22,564.949 v 333.43 c 0,30.449 -16.09,41.492 -44.86,41.492 -33.83,0 -106.61,-20.371 -158.21,-47.449 V 564.949 H 2524 V 977.07 h 43.2 l 3.37,-37.199 c 44,21.109 117.65,45.649 167.54,45.649 64.35,0 87.21,-36.411 87.21,-93.098 V 564.949 h -49.1"
         style="fill:#4dc6f4;fill-opacity:1;fill-rule:nonzero;stroke:none"
         id="path37" /><path
         d="m 2953.91,564.949 v 274.86 H 3003 v -274.86 z m 0,323.481 v 90.531 H 3003 V 888.43 h -49.09"
         style="fill:#4dc6f4;fill-opacity:1;fill-rule:nonzero;stroke:none"
         id="path39" /><path
         d="m 3316.79,564.949 h -75.28 L 3101.83,977.07 h 49.98 l 126.9,-377.41 127.82,377.41 h 49.87 L 3316.79,564.949"
         style="fill:#4dc6f4;fill-opacity:1;fill-rule:nonzero;stroke:none"
         id="path41" /><path
         d="m 3569.34,800.191 h 206.43 v 37.25 c 0,69.387 -24.53,105.797 -101.55,105.797 -76.98,0 -104.88,-36.41 -104.88,-105.797 z M 3676.79,599.66 c 42.27,0 89.72,8.43 130.29,19.461 l 8.5,-39.762 c -38.09,-13.539 -92.28,-22.847 -142.23,-22.847 -115.94,0 -153.08,60.066 -153.08,149.75 v 129.476 c 0,84.614 38.04,149.782 153.95,149.782 115.94,0 149.84,-65.168 149.84,-149.782 v -79.527 h -254.72 v -51.609 c 0,-73.614 25.36,-104.942 107.45,-104.942"
         style="fill:#4dc6f4;fill-opacity:1;fill-rule:nonzero;stroke:none"
         id="path43" /><path
         d="m 4125.37,937.281 c -43.14,-18.633 -90.54,-49.929 -130.36,-76.152 v -296.18 h -49.02 V 977.07 h 44 l 2.5,-62.64 c 44,28.808 87.99,56.73 126.97,71.09 l 5.91,-48.239"
         style="fill:#4dc6f4;fill-opacity:1;fill-rule:nonzero;stroke:none"
         id="path45" /><path
         d="m 4329.53,556.512 c -41.49,0 -90.51,8.437 -121.02,21.129 l 8.44,39.769 c 35.54,-10.949 78.69,-16.922 109.16,-16.922 76.15,0 91.41,14.422 91.41,66.864 0,59.25 -1.66,65.148 -95.59,87.179 -103.25,24.539 -111.71,49.91 -111.71,125.199 0,68.52 32.98,105.79 134.49,105.79 38.11,0 84.62,-5.051 116.79,-14.36 l -5.07,-41.469 c -32.99,6.727 -81.19,11.84 -115.09,11.84 -71.93,0 -82.05,-18.672 -82.05,-63.461 0,-56.691 3.36,-62.601 79.48,-82.109 121.02,-30.441 127.83,-49.871 127.83,-126.902 0,-74.481 -27.08,-112.547 -137.07,-112.547"
         style="fill:#4dc6f4;fill-opacity:1;fill-rule:nonzero;stroke:none"
         id="path47" /><path
         d="m 4585.7,564.949 v 274.86 h 49.1 v -274.86 z m 0,323.481 v 90.531 h 49.1 V 888.43 h -49.1"
         style="fill:#4dc6f4;fill-opacity:1;fill-rule:nonzero;stroke:none"
         id="path49" /><path
         d="m 4989.41,569.352 c -23.64,-9.364 -46.92,-12.84 -76.58,-12.84 -65.14,0 -93.09,23.699 -93.09,88.828 v 289.422 h -79.52 v 42.308 h 79.52 v 83.19 l 49.13,6.74 v -89.93 h 112.26 l -5.09,-42.308 H 4868.87 V 650.449 c 0,-36.398 5.03,-51.668 47.37,-51.668 22.78,0 39.33,1.039 63.86,8.629 l 9.31,-38.058"
         style="fill:#4dc6f4;fill-opacity:1;fill-rule:nonzero;stroke:none"
         id="path51" /><path
         d="m 5107.96,800.191 h 206.53 v 37.25 c 0,69.387 -24.59,105.797 -101.59,105.797 -76.99,0 -104.94,-36.41 -104.94,-105.797 z m 107.5,-200.531 c 42.29,0 89.7,8.43 130.29,19.461 l 8.48,-39.762 c -38.1,-13.539 -92.25,-22.847 -142.14,-22.847 -115.99,0 -153.2,60.066 -153.2,149.75 v 129.476 c 0,84.614 38.12,149.782 154.01,149.782 115.89,0 149.81,-65.168 149.81,-149.782 v -79.527 h -254.75 v -51.609 c 0,-73.614 25.4,-104.942 107.5,-104.942"
         style="fill:#4dc6f4;fill-opacity:1;fill-rule:nonzero;stroke:none"
         id="path53" /><path
         d="m 5159.41,1052.9 c 37.98,12.26 82.75,27.1 125.28,43.42 l 14.67,-42.12 c -41.66,-16.54 -87.97,-30.12 -126.37,-40.53 l -13.58,39.23"
         style="fill:#4dc6f4;fill-opacity:1;fill-rule:nonzero;stroke:none"
         id="path55" /><path
         d="M 1073.81,1752.74 954.316,1382.33 h 238.914 z m 284.04,-606.29 h -87.34 l -55.21,160.61 H 931.246 L 877.031,1146.45 H 789.75 l 225.84,668.46 h 116.4 l 225.86,-668.46"
         style="fill:#231f20;fill-opacity:1;fill-rule:nonzero;stroke:none"
         id="path57" /><path
         d="m 1446.66,1146.45 v 488.81 h 84.31 v -488.81 z m 0,567.15 v 121.44 h 84.31 V 1713.6 h -84.31"
         style="fill:#231f20;fill-opacity:1;fill-rule:nonzero;stroke:none"
         id="path59" /><path
         d="m 1609.77,1146.45 160.58,245.97 -157.61,242.84 h 87.38 l 116.39,-179.67 116.44,179.67 h 87.3 l -158.56,-242.84 161.58,-245.97 h -88.31 l -118.45,181.7 -117.4,-181.7 h -89.34"
         style="fill:#231f20;fill-opacity:1;fill-rule:nonzero;stroke:none"
         id="path61" /><path
         d="m 2687.65,1688.47 -13.02,-542.02 h -83.29 l 23.06,668.46 h 109.44 l 192.66,-516.88 192.74,516.88 h 109.39 l 23.09,-668.46 h -83.3 l -13.06,542.02 -170.6,-455.65 h -116.45 l -170.66,455.65"
         style="fill:#231f20;fill-opacity:1;fill-rule:nonzero;stroke:none"
         id="path63" /><path
         d="m 3606.67,1344.23 h -124.52 c -52.16,0 -71.27,-16.08 -71.27,-65.25 0,-50.2 9.1,-70.26 69.28,-70.26 42.2,0 89.35,16.04 126.51,40.12 z m 84.24,-197.78 h -71.24 l -5.04,36.2 c -43.12,-30.15 -99.34,-46.2 -158.54,-46.2 -91.34,0 -129.48,54.19 -129.48,140.52 0,101.35 51.18,137.51 149.59,137.51 h 130.47 v 76.28 c 0,61.23 -27.12,82.32 -106.42,82.32 -47.14,0 -92.85,-4.75 -130.96,-12.74 l -9.05,67.21 c 46.1,12.07 92.87,17.77 145.03,17.77 139.51,0 185.64,-54.18 185.64,-158.57 v -340.3"
         style="fill:#231f20;fill-opacity:1;fill-rule:nonzero;stroke:none"
         id="path65" /><path
         d="m 4036.29,1568.04 c -46.23,-22.06 -99.37,-56.23 -139.52,-84.34 v -337.25 h -84.32 v 488.81 h 73.33 l 4.98,-68.22 c 36.15,28.1 86.32,58.19 134.53,78.28 l 11,-77.28"
         style="fill:#231f20;fill-opacity:1;fill-rule:nonzero;stroke:none"
         id="path67" /><path
         d="m 4247.34,1136.45 c -50.21,0 -116.45,11.04 -155.6,26.08 l 11.08,66.25 c 42.11,-12.03 97.33,-20.06 139.5,-20.06 77.27,0 90.31,14.04 90.31,66.22 0,52.17 -4,58.25 -102.39,82.32 -121.42,30.12 -132.44,55.21 -132.44,156.56 0,90.35 40.13,131.5 168.59,131.5 47.2,0 98.37,-6.02 138.52,-17.05 l -6.05,-69.29 c -41.08,8.06 -95.3,14.1 -135.49,14.1 -72.22,0 -82.29,-17.08 -82.29,-61.27 0,-54.21 1.01,-64.2 83.31,-84.29 140.52,-35.1 151.55,-52.2 151.55,-149.57 0,-95.3 -29.09,-141.5 -168.6,-141.5"
         style="fill:#231f20;fill-opacity:1;fill-rule:nonzero;stroke:none"
         id="path69" /><path
         d="m 4590.38,1428.53 h 209.81 v 40.17 c 0,68.22 -23.1,106.39 -102.39,106.39 -79.31,0 -107.42,-38.17 -107.42,-106.39 z m 116.44,-219.81 c 48.15,0 101.35,9 154.57,23.09 l 11.04,-67.27 c -46.15,-17.05 -111.39,-28.09 -172.61,-28.09 -144.53,0 -193.75,69.26 -193.75,179.64 v 146.56 c 0,101.38 46.2,182.67 191.73,182.67 144.5,0 183.7,-83.3 183.7,-184.67 v -102.38 h -291.12 v -41.15 c 0,-77.32 21.05,-108.4 116.44,-108.4"
         style="fill:#231f20;fill-opacity:1;fill-rule:nonzero;stroke:none"
         id="path71" /><path
         d="m 4982.14,1146.45 v 488.81 h 84.36 v -488.81 z m 0,567.15 v 121.44 h 84.36 V 1713.6 h -84.36"
         style="fill:#231f20;fill-opacity:1;fill-rule:nonzero;stroke:none"
         id="path73" /><path
         d="m 5217.3,1146.45 v 688.59 l 84.24,12.03 v -700.62 h -84.24"
         style="fill:#231f20;fill-opacity:1;fill-rule:nonzero;stroke:none"
         id="path75" /><path
         d="m 5452.38,1146.45 v 688.59 l 84.35,12.03 v -700.62 h -84.35"
         style="fill:#231f20;fill-opacity:1;fill-rule:nonzero;stroke:none"
         id="path77" /><path
         d="m 5713.23,1428.53 h 209.79 v 40.17 c 0,68.22 -23.09,106.39 -102.37,106.39 -79.32,0 -107.42,-38.17 -107.42,-106.39 z m 116.46,-219.81 c 48.15,0 101.33,9 154.54,23.09 l 11,-67.27 c -46.12,-17.05 -111.38,-28.09 -172.62,-28.09 -144.53,0 -193.66,69.26 -193.66,179.64 v 146.56 c 0,101.38 46.14,182.67 191.7,182.67 144.53,0 183.66,-83.3 183.66,-184.67 v -102.38 h -291.08 v -41.15 c 0,-77.32 21.07,-108.4 116.46,-108.4"
         style="fill:#231f20;fill-opacity:1;fill-rule:nonzero;stroke:none"
         id="path79" /><path
         d="m 2483.17,1301.51 -132.37,76.43 c 0,0 -2.24,1.29 -6.1,3.52 2.03,1.17 4.05,2.34 6.1,3.52 l 132.37,76.43 c 5.63,3.46 7.56,8.73 8.74,13.27 1.11,4.72 1.41,9.41 1.41,13.46 0,5.51 -0.53,9.69 -0.57,9.91 l -0.4,3.33 -2.65,1.97 c -0.8,0.15 -13.88,11.71 -28.41,12.39 -2.59,0 -5.51,-0.53 -8.26,-2.12 l -132.37,-76.4 c -2.05,-1.18 -4.07,-2.34 -6.1,-3.52 0,2.35 0,4.68 0,7.03 v 277.62 c -0.87,11.12 -8.89,15.75 -14.82,20.03 -6.29,4 -12.15,6.49 -12.41,6.57 l -3.08,1.33 -3.07,-1.33 c -0.23,-0.11 -6.07,-2.57 -12.25,-6.57 -5.85,-4.25 -13.89,-8.97 -14.67,-20.03 v -277.62 c 0,-2.36 0,-4.71 0,-7.06 -2.03,1.17 -4.06,2.34 -6.11,3.53 l -132.34,76.42 c -2.75,1.59 -5.69,2.09 -8.29,2.09 -14.51,-0.65 -27.6,-12.21 -28.39,-12.33 l -2.65,-2 -0.4,-3.31 c -0.04,-0.24 -0.57,-4.42 -0.57,-9.91 0.03,-4.03 0.24,-8.79 1.39,-13.48 1.18,-4.54 3.09,-9.81 8.76,-13.27 l 132.35,-76.43 c 2.05,-1.18 4.07,-2.35 6.1,-3.52 -3.86,-2.23 -6.1,-3.52 -6.1,-3.52 l -132.39,-76.43 c -5.63,-3.42 -7.54,-8.7 -8.72,-13.28 -1.13,-4.68 -1.39,-9.39 -1.39,-13.44 0,-5.52 0.53,-9.7 0.57,-9.94 l 0.4,-3.28 2.65,-2.03 c 0.79,-0.12 13.88,-11.65 28.39,-12.3 h 0.11 c 2.56,0 5.43,0.51 8.18,2.06 l 132.34,76.4 h 0.02 c 0,0 2.23,1.29 6.09,3.52 0,-4.46 0,-7.04 0,-7.04 v -152.84 c 0.84,-11.11 8.9,-15.74 14.84,-20.02 6.24,-4.05 12.13,-6.46 12.38,-6.59 l 3.06,-1.29 3.07,1.29 c 0.23,0.13 6.07,2.54 12.28,6.59 5.86,4.28 13.85,8.97 14.66,20.02 l 0.01,152.84 h -0.01 c 0,0 0,2.6 0,7.07 3.87,-2.23 6.11,-3.52 6.11,-3.52 l 132.37,-76.43 c 2.77,-1.58 5.69,-2.09 8.28,-2.09 14.51,0.68 27.59,12.21 28.39,12.36 l 2.65,2 0.38,3.31 c 0.06,0.21 0.59,4.39 0.59,9.91 -0.03,4.05 -0.26,8.76 -1.41,13.44 -1.18,4.58 -3.07,9.84 -8.74,13.28"
         style="fill:#fab20b;fill-opacity:1;fill-rule:nonzero;stroke:none"
         id="path81" /><path
         d="m 0,1027.02 c 0,107.66 9.25781,208.45 27.8516,302.24 18.5547,93.76 46.6562,186.15 84.5114,277.08 37.778,90.91 84.532,181.99 140.157,273.34 33.503,55.63 63.207,94.41 84.511,120.35 21.992,26.78 45.297,55.09 77.387,55.09 34.984,0 52.441,-9.61 52.441,-28.87 0,-6.47 -16.394,-45.11 -49.234,-116.1 -32.812,-70.96 -63.641,-145.33 -92.523,-223.01 -28.907,-77.79 -55.649,-174.8 -80.161,-291.04 -24.691,-116.25 -36.957,-239.3 -36.957,-369.08 0,-128.372 12.082,-249.981 36.368,-364.872 C 268.594,547.391 302.926,447.84 333.984,363.711 365.02,279.559 389.293,204.109 420.293,137.441 451.352,70.7617 466.859,34.5703 466.859,28.8789 466.859,9.62109 449.402,0 414.418,0 381.625,0 359.145,32.7695 337.031,57.7305 314.906,82.7383 286.766,122.621 252.52,177.59 196.148,271.691 149.609,362.449 112.879,449.82 76.1289,537.211 48.2031,627.969 28.9414,722.148 9.61719,816.262 0,917.91 0,1027.02"
         style="fill:#1476c6;fill-opacity:1;fill-rule:nonzero;stroke:none"
         id="path83" /><path
         d="m 789.75,98.0195 7.965,28.0705 c 25.965,-7.961 51.519,-12.988 75.39,-12.988 44.829,0 56.547,12.148 62.411,45.648 1.675,9.219 2.937,16.34 2.937,21.801 0,17.578 -10.89,22.187 -51.519,32.66 -48.59,12.57 -63.254,28.059 -63.254,57.391 0,8.378 1.261,17.589 2.929,28.058 10.059,56.559 32.676,71.211 99.278,71.211 20.945,0 51.519,-3.769 73.301,-9.633 L 992.91,330.5 c -23.461,5.441 -51.945,8.379 -69.121,8.379 -47.324,0 -56.121,-7.551 -61.988,-41.059 -1.676,-9.629 -2.934,-18.011 -2.934,-23.019 0,-17.602 10.473,-22.629 49.008,-33.11 51.52,-13.82 66.184,-27.222 66.184,-54.871 0,-7.121 -1.262,-17.59 -3.352,-28.468 -8.797,-50.692 -25.133,-75.8207 -100.953,-75.8207 -23.871,0 -56.547,5.8671 -80.004,15.4882"
         style="fill:#1476c6;fill-opacity:1;fill-rule:nonzero;stroke:none"
         id="path85" /><path
         d="m 1248.77,219.91 c 0.83,4.61 1.25,8.801 1.25,12.141 0,22.211 -12.98,33.109 -41.88,33.109 -33.52,0 -51.11,-15.922 -56.55,-47.75 l -10.47,-59.058 c -4.62,-28.063 2.09,-46.082 40.21,-46.082 35.18,0 51.1,15.082 56.55,45.652 z m -142,-59.898 10.48,59.476 c 8.78,49.852 37.27,75.403 95.91,75.403 46.91,0 71.21,-25.961 71.21,-60.731 0,-2.941 0,-7.551 -1.26,-14.25 l -11.31,-64.082 c -7.95,-46.078 -32.24,-73.2967 -95.5,-73.2967 -58.22,0 -77.49,33.5077 -69.53,77.4807"
         style="fill:#1476c6;fill-opacity:1;fill-rule:nonzero;stroke:none"
         id="path87" /><path
         d="m 1546.94,258.031 c -14.24,4.61 -30.16,7.129 -43.57,7.129 -33.08,0 -45.66,-11.308 -52.77,-49.84 l -13.41,-76.25 c -0.42,-2.922 -0.83,-5.859 -0.83,-8.781 0,-12.988 6.7,-18.019 24.29,-18.019 18.43,0 42.72,5.859 63.25,13.82 l 4.61,-28.0705 c -20.53,-9.2187 -45.24,-15.4882 -71.63,-15.4882 -38.54,0 -54.87,17.9997 -54.87,45.6487 0,2.941 0.42,8.808 1.68,15.922 l 13.4,75.808 c 10.05,56.551 33.93,74.981 87.96,74.981 15.08,0 34.76,-3.352 49.43,-9.211 l -7.54,-27.649"
         style="fill:#1476c6;fill-opacity:1;fill-rule:nonzero;stroke:none"
         id="path89" /><path
         d="m 1708.95,374.059 35.19,5.019 -9.22,-52.348 -35.18,-4.609 z m -15.07,-85.868 35.18,5.039 -36.44,-206.5191 h -34.35 l 35.61,201.4801"
         style="fill:#1476c6;fill-opacity:1;fill-rule:nonzero;stroke:none"
         id="path91" /><path
         d="m 1989.5,260.121 c -10.9,2.938 -25.14,5.039 -39.38,5.039 -31.41,0 -46.91,-9.64 -54.03,-49.84 l -12.99,-73.742 c -0.83,-5.019 -1.67,-10.457 -1.67,-14.226 0,-9.641 4.18,-15.082 16.75,-15.082 25.55,0 48.18,14.242 71.62,35.601 z m 3.77,-173.4101 h -28.49 l 1.26,24.7191 c -22.62,-20.1097 -50.26,-28.8987 -76.23,-28.8987 -31.42,0 -43.15,17.1679 -43.15,40.6287 0,5.02 0.83,10.481 1.68,15.91 l 14.23,80.84 c 8.8,49.43 27.24,74.981 91.74,74.981 25.13,0 53.2,-6.27 73.3,-13.821 L 1993.27,86.7109"
         style="fill:#1476c6;fill-opacity:1;fill-rule:nonzero;stroke:none"
         id="path93" /><path
         d="m 2196.76,374.059 35.18,5.019 -51.52,-292.3671 h -34.35 l 50.69,287.3481"
         style="fill:#1476c6;fill-opacity:1;fill-rule:nonzero;stroke:none"
         id="path95" /><path
         d="m 2465.99,245.039 c 0,13.422 -10.05,21.781 -28.48,21.781 -31.84,0 -46.49,-11.711 -52.36,-44.808 l -5.03,-28.063 c 11.32,3.352 18.01,5.442 37.7,11.301 33.93,10.07 48.17,23.051 48.17,39.789 z M 2370.91,141.16 c -0.84,-4.601 -0.84,-7.519 -0.84,-9.211 0,-12.988 6.28,-20.519 28.06,-20.519 21.37,0 46.92,7.961 74.56,21.359 l 7.55,-25.559 C 2454.26,93 2427.46,82.5313 2393.52,82.5313 c -41.04,0 -57.38,19.2577 -57.38,47.3277 0,5.032 0.42,11.719 1.68,18.852 l 12.15,68.699 c 9.21,51.52 32.25,77.481 90.05,77.481 33.93,0 58.23,-15.911 58.23,-46.071 0,-34.351 -15.92,-51.519 -73.31,-70.789 -24.71,-8.383 -32.67,-10.472 -50.26,-15.929 l -3.77,-20.942"
         style="fill:#1476c6;fill-opacity:1;fill-rule:nonzero;stroke:none"
         id="path97" /><path
         d="m 2881.43,243.789 c 0.41,2.512 0.83,5.449 0.83,7.121 0,8.379 -4.18,11.309 -14.24,11.309 -20.53,0 -54.46,-15.918 -76.66,-30.571 L 2765.82,86.7109 h -34.36 l 27.66,157.0781 c 0.41,2.512 0.83,5.449 0.83,7.121 0,8.379 -4.18,11.309 -14.24,11.309 -20.52,0 -51.94,-15.078 -77.07,-30.571 L 2643.09,86.7109 h -34.35 l 35.61,201.4801 30.15,5.039 -2.51,-28.91 c 20.1,14.231 61.99,30.571 86.29,30.571 23.04,0 34.34,-11.731 36.02,-30.571 22.2,15.489 61.99,30.571 86.29,30.571 25.55,0 36.44,-13.821 36.44,-36.02 0,-4.609 -0.42,-10.891 -1.67,-17.601 L 2888.12,86.7109 h -34.35 l 27.66,157.0781"
         style="fill:#1476c6;fill-opacity:1;fill-rule:nonzero;stroke:none"
         id="path99" /><path
         d="m 3171.66,245.039 c 0,13.422 -10.04,21.781 -28.47,21.781 -31.84,0 -46.5,-11.711 -52.37,-44.808 l -5.02,-28.063 c 11.31,3.352 18,5.442 37.7,11.301 33.93,10.07 48.16,23.051 48.16,39.789 z M 3076.58,141.16 c -0.83,-4.601 -0.83,-7.519 -0.83,-9.211 0,-12.988 6.29,-20.519 28.05,-20.519 21.38,0 46.93,7.961 74.57,21.359 l 7.54,-25.559 C 3159.94,93 3133.13,82.5313 3099.2,82.5313 c -41.05,0 -57.38,19.2577 -57.38,47.3277 0,5.032 0.42,11.719 1.68,18.852 l 12.14,68.699 c 9.21,51.52 32.26,77.481 90.06,77.481 33.92,0 58.22,-15.911 58.22,-46.071 0,-34.351 -15.92,-51.519 -73.3,-70.789 -24.72,-8.383 -32.67,-10.472 -50.26,-15.929 l -3.78,-20.942"
         style="fill:#1476c6;fill-opacity:1;fill-rule:nonzero;stroke:none"
         id="path101" /><path
         d="m 3500.4,258.871 c 0,-4.609 -0.42,-10.891 -1.67,-17.601 L 3471.5,86.7109 h -34.36 l 27.66,157.0781 c 0.41,2.512 0.83,5.449 0.83,7.121 0,8.379 -4.18,11.309 -14.24,11.309 -20.52,0 -51.93,-15.078 -77.08,-30.571 L 3348.76,86.7109 h -34.33 l 35.59,201.4801 30.16,5.039 -2.52,-28.91 c 20.11,14.231 62,30.571 86.29,30.571 25.55,0 36.45,-13.821 36.45,-36.02"
         style="fill:#1476c6;fill-opacity:1;fill-rule:nonzero;stroke:none"
         id="path103" /><path
         d="m 3639.82,115.211 c 0,1.66 0,4.598 0.83,9.207 l 24.31,137.801 h -36.04 l 5.03,28.492 h 36.03 l 8.8,50.258 35.19,4.609 -9.64,-54.867 h 56.13 l -5.87,-28.492 H 3699.3 L 3675,124.828 c -0.42,-2.519 -0.42,-3.348 -0.42,-4.609 0,-5.86 3.36,-8.789 11.73,-8.789 11.32,0 23.46,2.519 37.71,8.789 l 7.95,-23.8674 c -17.59,-8.8008 -35.19,-13.8203 -55.3,-13.8203 -25.12,0 -36.85,14.2304 -36.85,32.6797"
         style="fill:#1476c6;fill-opacity:1;fill-rule:nonzero;stroke:none"
         id="path105" /><path
         d="m 4207.79,245.039 c 0,13.422 -10.04,21.781 -28.47,21.781 -31.84,0 -46.49,-11.711 -52.36,-44.808 l -5.03,-28.063 c 11.31,3.352 18.02,5.442 37.7,11.301 33.93,10.07 48.16,23.051 48.16,39.789 z M 4112.71,141.16 c -0.83,-4.601 -0.83,-7.519 -0.83,-9.211 0,-12.988 6.28,-20.519 28.07,-20.519 21.34,0 46.9,7.961 74.56,21.359 l 7.53,-25.559 c -25.96,-14.23 -52.77,-24.6987 -86.7,-24.6987 -41.06,0 -57.39,19.2577 -57.39,47.3277 0,5.032 0.42,11.719 1.66,18.852 l 12.16,68.699 c 9.21,51.52 32.25,77.481 90.06,77.481 33.94,0 58.22,-15.911 58.22,-46.071 0,-34.351 -15.92,-51.519 -73.3,-70.789 -24.71,-8.383 -32.67,-10.472 -50.26,-15.929 l -3.78,-20.942"
         style="fill:#1476c6;fill-opacity:1;fill-rule:nonzero;stroke:none"
         id="path107" /><path
         d="m 4536.54,258.871 c 0,-4.609 -0.43,-10.891 -1.69,-17.601 L 4507.63,86.7109 h -34.34 l 27.63,157.0781 c 0.42,2.512 0.85,5.449 0.85,7.121 0,8.379 -4.2,11.309 -14.25,11.309 -20.51,0 -51.94,-15.078 -77.07,-30.571 L 4384.9,86.7109 h -34.35 l 35.61,201.4801 30.15,5.039 -2.51,-28.91 c 20.11,14.231 62,30.571 86.29,30.571 25.55,0 36.45,-13.821 36.45,-36.02"
         style="fill:#1476c6;fill-opacity:1;fill-rule:nonzero;stroke:none"
         id="path109" /><path
         d="m 4804.12,259.711 c -10.88,2.93 -26.81,5.449 -41.04,5.449 -33.93,0 -46.92,-10.48 -54.04,-50.691 l -11.73,-65.348 c -0.83,-5.019 -1.68,-9.633 -1.68,-13.391 0,-9.64 4.2,-15.082 16.76,-15.082 21.77,0 51.1,14.653 72.89,33.071 z M 4802.45,55.7305 C 4794.91,12.9883 4777.73,0 4730.82,0 c -26.81,0 -62.84,8.37891 -83.77,17.1914 l 7.11,25.957 c 28.07,-10.0468 54.05,-14.6601 77.91,-14.6601 25.98,0 32.67,7.9609 36.45,29.7422 l 10.47,59.0705 c -22.63,-18.0197 -49,-26.4026 -74.98,-26.4026 -31.42,0 -43.15,17.1796 -43.15,40.6406 0,5.02 0.85,10.473 1.68,15.91 l 12.99,71.621 c 8.79,49.442 28.9,75.821 93.41,75.821 19.69,0 51.1,-5.442 72.88,-14.653 L 4802.45,55.7305"
         style="fill:#1476c6;fill-opacity:1;fill-rule:nonzero;stroke:none"
         id="path111" /><path
         d="m 5104.81,260.121 c -10.9,2.938 -25.14,5.039 -39.38,5.039 -31.4,0 -46.91,-9.64 -54.03,-49.84 l -12.99,-73.742 c -0.84,-5.019 -1.67,-10.457 -1.67,-14.226 0,-9.641 4.18,-15.082 16.75,-15.082 25.55,0 48.17,14.242 71.63,35.601 z m 3.77,-173.4101 h -28.49 l 1.26,24.7191 c -22.62,-20.1097 -50.27,-28.8987 -76.24,-28.8987 -31.41,0 -43.14,17.1679 -43.14,40.6287 0,5.02 0.85,10.481 1.68,15.91 l 14.25,80.84 c 8.78,49.43 27.21,74.981 91.72,74.981 25.13,0 53.19,-6.27 73.3,-13.821 L 5108.58,86.7109"
         style="fill:#1476c6;fill-opacity:1;fill-rule:nonzero;stroke:none"
         id="path113" /><path
         d="m 5407.15,259.711 c -10.88,2.93 -26.8,5.449 -41.03,5.449 -33.94,0 -46.93,-10.48 -54.05,-50.691 l -11.72,-65.348 c -0.83,-5.019 -1.68,-9.633 -1.68,-13.391 0,-9.64 4.2,-15.082 16.75,-15.082 21.78,0 51.11,14.653 72.89,33.071 z M 5405.48,55.7305 C 5397.94,12.9883 5380.77,0 5333.85,0 c -26.8,0 -62.83,8.37891 -83.77,17.1914 l 7.12,25.957 c 28.07,-10.0468 54.04,-14.6601 77.91,-14.6601 25.98,0 32.67,7.9609 36.45,29.7422 l 10.47,59.0705 c -22.63,-18.0197 -49.01,-26.4026 -74.98,-26.4026 -31.42,0 -43.15,17.1796 -43.15,40.6406 0,5.02 0.85,10.473 1.68,15.91 l 12.99,71.621 c 8.79,49.442 28.9,75.821 93.41,75.821 19.68,0 51.1,-5.442 72.88,-14.653 L 5405.48,55.7305"
         style="fill:#1476c6;fill-opacity:1;fill-rule:nonzero;stroke:none"
         id="path115" /><path
         d="m 5647.1,338.879 c 20.12,10.051 40.64,21.781 62.01,36.859 l 12.98,-23.039 c -20.94,-14.668 -36.03,-23.027 -62.85,-35.609 z m 49.43,-93.84 c 0,13.422 -10.05,21.781 -28.48,21.781 -31.83,0 -46.49,-11.711 -52.35,-44.808 l -5.04,-28.063 c 11.31,3.352 18.02,5.442 37.7,11.301 33.94,10.07 48.17,23.051 48.17,39.789 z M 5601.45,141.16 c -0.83,-4.601 -0.83,-7.519 -0.83,-9.211 0,-12.988 6.27,-20.519 28.06,-20.519 21.35,0 46.9,7.961 74.56,21.359 l 7.53,-25.559 C 5684.81,93 5658,82.5313 5624.08,82.5313 c -41.06,0 -57.4,19.2577 -57.4,47.3277 0,5.032 0.43,11.719 1.67,18.852 l 12.15,68.699 c 9.22,51.52 32.26,77.481 90.07,77.481 33.93,0 58.22,-15.911 58.22,-46.071 0,-34.351 -15.92,-51.519 -73.3,-70.789 -24.71,-8.383 -32.67,-10.472 -50.27,-15.929 l -3.77,-20.942"
         style="fill:#1476c6;fill-opacity:1;fill-rule:nonzero;stroke:none"
         id="path117" /><path
         d="m 5972.06,245.039 c 0,13.422 -10.06,21.781 -28.49,21.781 -31.84,0 -46.49,-11.711 -52.35,-44.808 l -5.03,-28.063 c 11.29,3.352 18.01,5.442 37.7,11.301 33.93,10.07 48.17,23.051 48.17,39.789 z M 5876.97,141.16 c -0.83,-4.601 -0.83,-7.519 -0.83,-9.211 0,-12.988 6.27,-20.519 28.06,-20.519 21.35,0 46.91,7.961 74.56,21.359 l 7.53,-25.559 c -25.95,-14.23 -52.76,-24.6987 -86.7,-24.6987 -41.05,0 -57.38,19.2577 -57.38,47.3277 0,5.032 0.42,11.719 1.66,18.852 l 12.16,68.699 c 9.21,51.52 32.25,77.481 90.06,77.481 33.92,0 58.22,-15.911 58.22,-46.071 0,-34.351 -15.93,-51.519 -73.3,-70.789 -24.72,-8.383 -32.68,-10.472 -50.26,-15.929 l -3.78,-20.942"
         style="fill:#1476c6;fill-opacity:1;fill-rule:nonzero;stroke:none"
         id="path119" /></g></g></svg>
