<?xml version="1.0" encoding="UTF-8" standalone="no"?>
<svg
   fill="#000000"
   viewBox="0 0 24 24"
   width="192px"
   height="192px"
   version="1.1"
   id="svg4"
   sodipodi:docname="icons8-django-192.svg"
   inkscape:version="1.1.1 (3bf5ae0d25, 2021-09-20)"
   xmlns:inkscape="http://www.inkscape.org/namespaces/inkscape"
   xmlns:sodipodi="http://sodipodi.sourceforge.net/DTD/sodipodi-0.dtd"
   xmlns="http://www.w3.org/2000/svg"
   xmlns:svg="http://www.w3.org/2000/svg">
  <defs
     id="defs8" />
  <sodipodi:namedview
     id="namedview6"
     pagecolor="#ffffff"
     bordercolor="#999999"
     borderopacity="1"
     inkscape:pageshadow="0"
     inkscape:pageopacity="0"
     inkscape:pagecheckerboard="0"
     showgrid="false"
     inkscape:zoom="3.8802083"
     inkscape:cx="45.22953"
     inkscape:cy="96"
     inkscape:window-width="1868"
     inkscape:window-height="1049"
     inkscape:window-x="52"
     inkscape:window-y="0"
     inkscape:window-maximized="1"
     inkscape:current-layer="svg4" />
  <path
     d="M 11 3 L 11 8.1582031 C 10.653 8.0172031 9.9041562 8 9.5351562 8 C 6.7591563 8 4.1894531 9.306 4.1894531 13 C 4.1894531 17.42 7.67 18 10 18 C 10.92 18 13 17.909141 14 17.619141 L 14 3 L 11 3 z M 16 3 L 16 6 L 19 6 L 19 3 L 16 3 z M 16 8 L 16 16.701172 C 16 18.217172 15.078 19.795172 13 20.701172 L 15.859375 21.996094 C 18.765375 20.996094 19 17.701172 19 16.701172 L 19 8 L 16 8 z M 9.9707031 10.550781 C 10.290703 10.550781 10.65 10.609453 11 10.689453 L 11 15.392578 C 10.65 15.472578 10.290703 15.533203 9.9707031 15.533203 C 8.6607031 15.533203 7.390625 15.12 7.390625 13 C 7.390625 10.88 8.6607031 10.550781 9.9707031 10.550781 z"
     id="path2"
     style="fill:#0c4b33;fill-opacity:1;stroke:#ffffff;stroke-opacity:1;stroke-width:0.375;stroke-miterlimit:4;stroke-dasharray:none" />
</svg>
